# xmcd
#
# Track frame offsets:
#	150
#	14617
#	29675
#	45171
#	62139
#	78661
#	93638
#	111319
#	125508
#	141105
#	156045
#	169787
#	180589
#
# Disc length: 2622 seconds
#
# Revision: 0
# Processed by: cddbd v1.5.2PL0 Copyright (c) Steve Scherf et al.
# Submitted via: audiograbber 1.83.01
#
DISCID=af0a3c0d
DTITLE=Jasmine Rae - If I Want To
DYEAR=2013
DGENRE=Country
TTITLE0=Rock n Roll Town
TTITLE1=Bad Boys Get Me Good (feat. Kellie Pickler)
TTITLE2=If I Want To
TTITLE3=Just Don't Ask Me How I Am
TTITLE4=Lazy Boy
TTITLE5=My Daddy's Name
TTITLE6=More Over Than This
TTITLE7=One Guy One Girl
TTITLE8=Broken Bridges
TTITLE9=These Hands
TTITLE10=I'm Your Girl
TTITLE11=Why'd You Tie The Knot?
TTITLE12=First Song
EXTD=
EXTT0=
EXTT1=
EXTT2=
EXTT3=
EXTT4=
EXTT5=
EXTT6=
EXTT7=
EXTT8=
EXTT9=
EXTT10=
EXTT11=
EXTT12=
PLAYORDER=
